<svg id="Layer_1" data-name="Layer 1" xmlns="http://www.w3.org/2000/svg" viewBox="0 0 40.06 47"><defs><style>.cls-1{fill:#267df4}</style></defs><title>clock2</title><path class="cls-1" d="M189.59 258.5l-.2-.15a1.51 1.51 0 0 1-.32-2.46c.69-.72 1.41-1.42 2.12-2.12a1.37 1.37 0 0 1 .27-.15c-.52-.4-1-.73-1.38-1.08a17.69 17.69 0 0 1-5.28-7.28 17.43 17.43 0 1 1 26.32 8.05l-.3.23.24.26c.69.7 1.4 1.38 2.08 2.09a1.47 1.47 0 0 1 .1 2.07 3.92 3.92 0 0 1-.83.53h-.5a2.65 2.65 0 0 1-1.13-.78c-.26-.28-.54-.54-.81-.82-.58-.6-1.3-1.11-1.4-2.07a17.52 17.52 0 0 1-14.94 0 2.38 2.38 0 0 1-.9 1.61c-.25.22-.46.48-.71.7-.51.47-1 .91-1.52 1.37zm11.35-34.41c-.47 0-1.09 0-1.69.14a14.73 14.73 0 0 0-5.69 27.07 14.3 14.3 0 0 0 18.59-3.06 14.38 14.38 0 0 0 3.19-12.06 14.21 14.21 0 0 0-4.83-8.52 14.56 14.56 0 0 0-9.57-3.57z" transform="translate(-181.07 -211.5)"/><path class="cls-1" d="M192 211.5l.92.19a10.13 10.13 0 0 1 7 5.2c.24.44.47.88.7 1.32.08.14.13.29.23.51l-1.69.38a26.27 26.27 0 0 0-9.21 3.84 30.79 30.79 0 0 0-5.52 5c-.21.24-.43.46-.65.68-.07 0-.13-.05-.16-.09a13.28 13.28 0 0 1-2.35-5 10 10 0 0 1 2-8.31 9.55 9.55 0 0 1 6.27-3.57l.23-.09zm4 5.28a6.82 6.82 0 0 0-11.56 6.69 31.66 31.66 0 0 1 5.37-4.06 30.12 30.12 0 0 1 6.19-2.63zm16.39-5.28c.42.1.84.17 1.26.29a9.59 9.59 0 0 1 7.05 6.89 10 10 0 0 1-1.27 8.47l-.95 1.51-.8-.86a27.49 27.49 0 0 0-8.18-6.47 30.64 30.64 0 0 0-7.34-2.41l-.74-.16a.68.68 0 0 1 0-.22 13.9 13.9 0 0 1 2.7-4.11 10.17 10.17 0 0 1 5.78-2.83l.28-.09zm-6.24 5.28a30.33 30.33 0 0 1 6.2 2.63 33.15 33.15 0 0 1 5.4 4.08 7 7 0 0 0-3.2-8.12 6.89 6.89 0 0 0-8.4 1.41zm-1.05 23.52h-3.95a1.43 1.43 0 0 1-1.37-.75 1.72 1.72 0 0 1-.19-.76v-5a1.43 1.43 0 0 1 .81-1.39 1.46 1.46 0 0 1 1.56.11 1.5 1.5 0 0 1 .63 1.34v2.85c0 .61 0 .62.65.62h5.9a1.49 1.49 0 0 1 1.35 2.09 1.45 1.45 0 0 1-1.42.91z" transform="translate(-181.07 -211.5)"/></svg>