<svg id="Layer_1" data-name="Layer 1" xmlns="http://www.w3.org/2000/svg" viewBox="0 0 401.93 470"><defs><style>.cls-1{fill:#fff}</style></defs><title>clock</title><path class="cls-1" d="M301 620h-86V150h88a11.84 11.84 0 0 1-2.3.85c-25.5 3.81-46.63 15.54-62.7 35.68-19.53 24.47-25.67 52.47-20.32 83.14 3.3 18.9 13.1 34.73 23.47 50.31.24.36.82.49 1.55.91 2.16-2.26 4.41-4.46 6.48-6.82a307.93 307.93 0 0 1 55.2-49.66c27.9-19.52 59.32-30.61 92.12-38.36 5.43-1.28 10.88-2.47 16.86-3.82-1-2.15-1.56-3.67-2.31-5.1-2.32-4.43-4.64-8.85-7.05-13.23-15.39-27.89-38.75-45.11-69.79-52-3.06-.68-6.14-1.27-9.22-1.91H507a17.85 17.85 0 0 1-2.82.86c-22.39 3-41.5 12.78-57.76 28.3-12.17 11.61-19.68 26.31-27 41.13a6.77 6.77 0 0 0-.14 2.19c2.58.56 5 1.12 7.41 1.61 25.38 5.22 50.06 12.72 73.36 24.12 31.9 15.61 58.11 38.59 81.8 64.68 2.51 2.76 5.07 5.47 8 8.65 3.49-5.55 6.47-10.32 9.49-15.08 16.69-26.36 21.48-54.73 12.72-84.67-10.51-36-34.45-58.82-70.54-68.89-4.14-1.15-8.37-1.94-12.57-2.9h88V620H529c2.81-1.72 6.14-3 8.32-5.27 5.53-5.87 5.05-14.44-1-20.74-6.79-7.11-13.86-14-20.8-20.92-.77-.77-1.49-1.59-2.39-2.56 1.19-.93 2.07-1.67 3-2.34a173 173 0 0 0 40.45-39.79c29.13-40.5 40.14-85.67 32-134.84-7.6-46.2-30.47-83.82-67.77-112.28a173.83 173.83 0 0 0-141.27-31.56Q319.38 263 280.41 311c-23.89 29.35-36.78 63.16-39.25 100.77A173.9 173.9 0 0 0 253 487.65a176.93 176.93 0 0 0 52.87 72.79c4.19 3.46 8.56 6.7 13.76 10.75a13.69 13.69 0 0 0-2.68 1.51c-7.1 7-14.3 14-21.18 21.24-7.73 8.15-6.2 18.78 3.25 24.59.69.47 1.32.98 1.98 1.47z" transform="translate(-215.03 -150)"/><path d="M301 620c-.66-.49-1.29-1-2-1.46-9.45-5.81-11-16.44-3.25-24.59 6.88-7.25 14.08-14.2 21.18-21.24a13.69 13.69 0 0 1 2.68-1.51c-5.2-4-9.57-7.29-13.76-10.75a176.93 176.93 0 0 1-52.85-72.8 173.9 173.9 0 0 1-11.84-75.9c2.47-37.62 15.36-71.42 39.25-100.77q38.94-47.84 99.23-61.28a173.83 173.83 0 0 1 141.27 31.56c37.29 28.46 60.16 66.08 67.77 112.28 8.09 49.17-2.91 94.35-32 134.84a173 173 0 0 1-40.45 39.79c-.93.67-1.82 1.41-3 2.34.9 1 1.62 1.79 2.39 2.56 6.94 7 14 13.81 20.8 20.92 6 6.3 6.49 14.87 1 20.74-2.18 2.31-5.51 3.54-8.32 5.27h-5c-4.59-1.45-8.12-4.38-11.34-7.84-2.61-2.8-5.42-5.41-8.08-8.17-5.81-6-13-11.08-14-20.72-50 22.31-99.51 22.23-149.4-.05-.63 7.11-4.31 11.88-9 16.1-2.48 2.22-4.63 4.79-7.07 7C320.14 611 315 615.46 310 620zm113.52-344.1c-4.67.37-10.86.5-16.93 1.39-36 5.25-66.46 21.09-90.2 48.83C278 360.44 266.29 400.27 273 445s29.67 79 67.7 103c30.55 19.29 64.11 25.54 99.63 19.49 34.84-5.94 63.88-22.86 86.29-50.08 28.94-35.15 39.61-75.77 31.87-120.6-5.86-33.95-22.11-62.51-48.28-85.22-27.02-23.44-58.6-34.82-95.69-35.69z" transform="translate(-215.03 -150)"/><path d="M325 150c3.07.63 6.15 1.23 9.22 1.91 31 6.88 54.4 24.1 69.79 52 2.41 4.37 4.74 8.8 7.05 13.23.75 1.43 1.34 2.95 2.31 5.1-6 1.35-11.43 2.53-16.86 3.82-32.8 7.75-64.22 18.84-92.12 38.36a307.93 307.93 0 0 0-55.2 49.66c-2.07 2.36-4.32 4.56-6.48 6.82-.73-.42-1.31-.55-1.55-.91-10.37-15.58-20.18-31.4-23.47-50.31-5.35-30.7.79-58.66 20.32-83.14 16.07-20.14 37.2-31.87 62.7-35.68A11.84 11.84 0 0 0 303 150zm40.38 52.82C349 182.56 310 170.09 277.52 191c-30.79 19.8-36.49 59-27.75 78.73 16.7-15.26 34.21-29.27 53.67-40.62s40.36-19.5 61.94-26.29zM529 150c4.19 1 8.43 1.74 12.57 2.9 36.09 10.06 60 32.93 70.54 68.89 8.75 29.95 4 58.32-12.72 84.67-3 4.76-6 9.53-9.49 15.08-2.95-3.18-5.51-5.89-8-8.65-23.69-26.09-49.9-49.06-81.8-64.68-23.3-11.4-48-18.9-73.36-24.12-2.42-.5-4.83-1.05-7.41-1.61a6.77 6.77 0 0 1 .14-2.19c7.3-14.82 14.8-29.51 27-41.13 16.26-15.52 35.37-25.27 57.76-28.3A17.85 17.85 0 0 0 507 150zm-62.38 52.82c21.57 6.79 42.46 14.94 61.95 26.27s37 25.59 54 40.83c9.26-26.51-1.21-64.12-32-81.23-32.05-17.85-69.17-4.58-83.95 14.13z" transform="translate(-215.03 -150)"/><path class="cls-1" d="M310 620c5-4.54 10.14-9 15.13-13.63 2.45-2.25 4.6-4.83 7.07-7 4.71-4.22 8.39-9 9-16.1 49.89 22.29 99.38 22.37 149.4.05 1 9.64 8.16 14.69 14 20.72 2.66 2.76 5.47 5.36 8.08 8.17 3.22 3.46 6.75 6.39 11.34 7.84zm104.52-344.1c37.1.87 68.67 12.25 95.7 35.72 26.16 22.71 42.42 51.27 48.28 85.22 7.74 44.83-2.93 85.45-31.87 120.6-22.41 27.21-51.45 44.14-86.29 50.08-35.52 6.06-69.08-.2-99.63-19.49-38-24-61-58.48-67.7-103s5-84.53 34.39-118.87c23.74-27.74 54.19-43.58 90.2-48.83 6.06-.93 12.25-1.07 16.92-1.43zm41.6 162.1h39.48c6.65 0 11.53-3.07 14.22-9.14A14.91 14.91 0 0 0 496.37 408c-19.65-.17-39.31-.06-59-.07-6.44 0-6.45 0-6.46-6.16v-28.48c0-5.39-1.52-10.25-6.29-13.43-5-3.3-10.2-3.92-15.61-1.15-5.63 2.87-8.07 7.62-8.06 13.85 0 16.82-.07 33.65.09 50.47a17.2 17.2 0 0 0 1.88 7.6c2.84 5.37 7.79 7.46 13.72 7.46zm-90.74-235.18c-21.58 6.79-42.48 14.92-61.95 26.28s-37 25.36-53.67 40.62c-8.74-19.69-3-58.94 27.75-78.73 32.49-20.9 71.49-8.43 87.87 11.83zm101.24 0c14.77-18.72 51.9-32 84-14.14 30.77 17.11 41.23 54.72 32 81.23-17-15.23-34.48-29.47-54-40.83s-40.42-19.47-62-26.26z" transform="translate(-215.03 -150)"/><path d="M456.12 438.05h-39.48c-5.93 0-10.88-2.09-13.72-7.46A17.2 17.2 0 0 1 401 423c-.16-16.82-.06-33.64-.09-50.47 0-6.22 2.43-11 8.06-13.85 5.41-2.76 10.66-2.15 15.61 1.15 4.77 3.18 6.24 8 6.29 13.43.08 9.49 0 19 0 28.48 0 6.14 0 6.16 6.46 6.16 19.65 0 39.31-.1 59 .07a14.91 14.91 0 0 1 13.45 20.93c-2.7 6.07-7.57 9.13-14.22 9.14-13.13.04-26.29-.04-39.44.01z" transform="translate(-215.03 -150)"/></svg>