<svg id="Layer_1" data-name="Layer 1" xmlns="http://www.w3.org/2000/svg" viewBox="0 0 420 510"><defs><style>.cls-1{fill:#fff}</style></defs><title>lock</title><path d="M1081 616H723c-1.51-.66-3-1.39-4.54-2-10.21-3.86-18.17-10.2-22.68-20.4-1.27-2.87-2.52-5.76-3.78-8.64v-248c.66-1.51 1.35-3 2-4.54 2.74-6.68 6.07-12.95 12-17.46 8.05-6.15 16.89-9.83 27.26-9.11a85.89 85.89 0 0 0 8.72-.28v-6.64c0-16.81-.25-33.63.13-50.43a131.06 131.06 0 0 1 2.58-22.71 148.59 148.59 0 0 1 24.93-57.23 146.43 146.43 0 0 1 38.34-37.42 148.85 148.85 0 0 1 59.86-23.67c2.43-.38 4.82-1 7.22-1.52h54c4.53.89 9.08 1.7 13.6 2.67a155.69 155.69 0 0 1 51 20.94 150.74 150.74 0 0 1 32.55 28.44 140.52 140.52 0 0 1 22.46 35.2c8.14 18.09 13.29 36.88 13.39 56.85.09 16.48 0 33 0 49.44 0 1.93.24 3.86.41 6.48 3.9 0 7.35-.1 10.79 0 15.41.5 27 7.38 34.23 21.07 1.71 3.21 3 6.64 4.49 10V585c-.66 1.51-1.39 3-2 4.54-3.86 10.21-10.21 18.17-20.4 22.68-2.8 1.27-5.68 2.52-8.56 3.78zm-179-30.06h164.5c11.9 0 15.43-3.57 15.43-15.56v-218.5c0-12.33-3.45-15.81-15.69-15.81H737.75c-12.23 0-15.68 3.48-15.69 15.81v218c0 12.66 3.38 16.06 15.94 16.06zM822.36 305.3c7.16 1.17 155.29.82 159.31-.38.08-1.63.25-3.41.25-5.2 0-9.66.14-19.32 0-29a114.38 114.38 0 0 0-1.19-16.39c-3.47-21.07-13.43-38.4-30.49-51.51-17.69-13.59-37.81-18.31-59.62-15.55-13.94 1.77-26.46 7.43-37.61 16.17s-18.85 19.46-24.46 32.2c-5 11.25-5.86 23.15-6.36 35.1-.41 9.64-.1 19.31-.07 29-.04 1.79.14 3.58.24 5.56zm209.13.26c.2-1.71.42-2.69.42-3.67 0-14.33.12-28.65 0-43a131.3 131.3 0 0 0-1.15-17.4c-4-27.35-15.19-51-35.16-70.6a119.65 119.65 0 0 0-55.48-31.07c-7.6-1.92-15.41-2.29-23.18-3.13-13.37-1.46-26.63-.59-39.82.73-14.68 1.46-28.54 6.26-41.59 13.31a121.18 121.18 0 0 0-44.2 41c-13.44 20.51-18.84 43.48-19.2 67.74-.2 13.49 0 27 0 40.48 0 1.77.23 3.54.34 5.15 5.57 1.33 15.53 1.13 19.51-.45v-5.23c0-11.83.13-23.66 0-35.48a93 93 0 0 1 3.02-25.18c8.35-31.69 27-55.39 55.9-70.62 28.12-14.83 57.68-16.34 87.6-6.34a104.13 104.13 0 0 1 47.5 32.64c16.37 19.58 25.62 41.86 26 67.53.18 12.66 0 25.32.05 38 0 1.77.24 3.54.38 5.59z" transform="translate(-692 -106)"/><path class="cls-1" d="M875 106c-2.41.51-4.8 1.14-7.22 1.52a148.85 148.85 0 0 0-59.86 23.67 146.43 146.43 0 0 0-38.34 37.42 148.59 148.59 0 0 0-24.93 57.23 131.06 131.06 0 0 0-2.58 22.71c-.38 16.8-.13 33.62-.13 50.43v6.64a85.89 85.89 0 0 1-8.72.28c-10.38-.72-19.21 3-27.26 9.11-5.91 4.51-9.24 10.77-12 17.46-.63 1.53-1.32 3-2 4.54v-231zm237 231c-1.49-3.33-2.78-6.76-4.49-10-7.27-13.69-18.82-20.57-34.23-21.07-3.44-.11-6.89 0-10.79 0-.17-2.61-.4-4.54-.41-6.48v-49.44c-.1-20-5.25-38.75-13.39-56.85a140.52 140.52 0 0 0-22.46-35.2 150.74 150.74 0 0 0-32.63-28.38 155.69 155.69 0 0 0-51-20.94c-4.51-1-9.06-1.78-13.6-2.67h183zM692 585c1.26 2.88 2.51 5.76 3.78 8.64 4.51 10.19 12.47 16.53 22.68 20.4 1.54.58 3 1.31 4.54 2h-31V585zm389 31c2.88-1.26 5.76-2.51 8.64-3.78 10.19-4.51 16.54-12.47 20.4-22.68.58-1.54 1.31-3 2-4.54v31zm-179-30.06H738c-12.56 0-15.94-3.4-15.94-16.06v-218c0-12.33 3.45-15.81 15.69-15.81h328.49c12.23 0 15.69 3.48 15.69 15.81v218.5c0 12-3.54 15.56-15.43 15.56zm-14.08-108.57c-4-4-7.68-7.64-11.3-11.25q-12.91-12.89-25.8-25.8c-5.05-5.06-11.15-6.82-17.86-4.64-10.34 3.36-13.5 17.11-5.71 25 16.6 16.85 33.4 33.52 50.19 50.18a14.59 14.59 0 0 0 5 3.08c7.15 2.7 12.94.18 18.05-4.94q37.25-37.32 74.54-74.6a25.71 25.71 0 0 0 4-5.08 15.1 15.1 0 0 0-6.23-20.95c-6.85-3.5-13.42-2.28-19.47 3.75q-30.24 30.19-60.44 60.42c-1.37 1.46-2.83 2.77-4.97 4.83zM822.36 305.3c-.11-2-.28-3.76-.29-5.55 0-9.66-.34-19.33.07-29 .51-11.95 1.41-23.85 6.36-35.1 5.61-12.74 13.46-23.57 24.46-32.2s23.67-14.41 37.61-16.17c21.81-2.76 41.93 2 59.62 15.55 17.06 13.1 27 30.44 30.49 51.51a114.38 114.38 0 0 1 1.19 16.39c.18 9.66.07 19.32 0 29 0 1.79-.17 3.57-.25 5.2-3.97 1.19-152.1 1.54-159.26.37z" transform="translate(-692 -106)"/><path class="cls-1" d="M1031.49 305.55h-19c-.15-2.06-.38-3.82-.38-5.59 0-12.66.13-25.32-.05-38-.36-25.67-9.62-48-26-67.53a104.13 104.13 0 0 0-47.52-32.65c-29.93-10-59.48-8.48-87.6 6.34-28.94 15.25-47.58 38.95-55.94 70.64a93 93 0 0 0-3.11 25.17c.17 11.83 0 23.65 0 35.48v5.23c-4 1.58-13.94 1.78-19.51.45-.11-1.61-.34-3.38-.34-5.15 0-13.49-.18-27 0-40.48.36-24.27 5.76-47.23 19.2-67.74a121.18 121.18 0 0 1 44.2-41c13-7 26.91-11.84 41.59-13.31 13.19-1.32 26.45-2.19 39.82-.73 7.77.85 15.58 1.21 23.18 3.13a119.65 119.65 0 0 1 55.48 31.07c20 19.56 31.18 43.24 35.16 70.6a131.3 131.3 0 0 1 1.15 17.4c.16 14.32.06 28.65 0 43 .09.98-.13 1.97-.33 3.67z" transform="translate(-692 -106)"/><path d="M887.92 477.37c2.15-2.06 3.6-3.41 5-4.81q30.23-30.21 60.44-60.42c6-6 12.62-7.26 19.47-3.75a15.1 15.1 0 0 1 6.23 20.95 25.71 25.71 0 0 1-4 5.08q-37.24 37.33-74.54 74.6c-5.12 5.13-10.9 7.65-18.05 4.94a14.59 14.59 0 0 1-5-3.08c-16.79-16.66-33.59-33.33-50.19-50.18-7.79-7.9-4.63-21.66 5.71-25 6.71-2.18 12.81-.43 17.86 4.64q12.89 12.91 25.8 25.8c3.59 3.59 7.22 7.2 11.27 11.23z" transform="translate(-692 -106)"/></svg>