<svg xmlns="http://www.w3.org/2000/svg" xmlns:xlink="http://www.w3.org/1999/xlink" height="94" viewBox="0 0 31 94" width="31"><svg height="40.5" viewBox="0 0 23 41" width="22.2" x="4" y="4"><defs><style>.cls-1{fill:#d4d4d4}</style></defs><title>arrow_left2</title><path class="cls-1" d="M0 20.5a7.31 7.31 0 0 0 1.86 2.18c.29.3 16.38 16.05 17.62 17.23a5.66 5.66 0 0 0 .91.59h.6a2.06 2.06 0 0 0 1.2-1.1v-.7a9.19 9.19 0 0 0-.78-1c-2.46-2.44-15.64-15.33-17.43-17-.3-.29-.3-.49 0-.78.85-.8 1.69-1.61 2.52-2.42C8.78 15.26 20.29 4 21.41 2.88a9.41 9.41 0 0 0 .78-1v-.75a2.06 2.06 0 0 0-1.2-1.1h-.6a12.88 12.88 0 0 0-1.34 1C16.64 3.37 1.4 18.24.97 18.72a15.84 15.84 0 0 0-1 1.3z"/></svg><svg height="40.5" viewBox="0 0 23 41" width="22.2" x="4" y="49"><defs><style>.cls-1{fill:#d4d4d4}</style></defs><title>arrow_right2</title><path class="cls-1" d="M22.2 20.5a7.31 7.31 0 0 1-1.86 2.18c-.29.3-16.38 16.05-17.62 17.23a5.66 5.66 0 0 1-.91.59h-.6a2.06 2.06 0 0 1-1.2-1.1v-.7a9.19 9.19 0 0 1 .78-1c2.46-2.44 15.64-15.33 17.43-17 .3-.29.3-.49 0-.78-.85-.8-1.69-1.61-2.52-2.42C13.42 15.26 1.91 4 .79 2.88a9.41 9.41 0 0 1-.78-1v-.75a2.06 2.06 0 0 1 1.2-1.1h.6a12.88 12.88 0 0 1 1.34 1C5.56 3.37 20.8 18.24 21.23 18.72a15.84 15.84 0 0 1 1 1.3z"/></svg></svg>