<svg xmlns="http://www.w3.org/2000/svg" xmlns:xlink="http://www.w3.org/1999/xlink" height="95" viewBox="0 0 31 95" width="31"><svg height="41.22" viewBox="0 0 23 42" width="22.13" x="4" y="4"><defs><style>.cls-1{fill:#26292c;fill-rule:evenodd;opacity:.2}</style></defs><path id="Arrow" class="cls-1" d="M1363.15 5348.06l-19.09 19.09a1.5 1.5 0 1 1-2.12-2.12l18.03-18.03-18.03-18.03a1.5 1.5 0 1 1 2.12-2.12l19.09 19.09a1.491 1.491 0 0 1 0 2.12z" transform="translate(-1341.5 -5326.41)"/></svg><svg height="41" viewBox="0 0 22 41" width="22" x="4" y="50"><defs><style>.cls-1{fill:#26292c;fill-rule:evenodd;opacity:.2}</style></defs><path id="Arrow" class="cls-1" d="M257.563 5329.58l-17.929 17.94 17.929 17.93a1.492 1.492 0 1 1-2.109 2.11l-18.984-18.99a1.491 1.491 0 0 1 0-2.11l18.984-18.99a1.492 1.492 0 1 1 2.109 2.11z" transform="translate(-236.031 -5327.03)"/></svg></svg>