<svg id="Layer_1" data-name="Layer 1" xmlns="http://www.w3.org/2000/svg" viewBox="0 0 22.2 40.5"><defs><style>.cls-1{fill:#d4d4d4}</style></defs><title>arrow_right2</title><path class="cls-1" d="M521.68 458.37a7.31 7.31 0 0 1-1.86 2.18c-.29.3-16.38 16.05-17.62 17.23a5.66 5.66 0 0 1-.91.59h-.6a2.06 2.06 0 0 1-1.2-1.1v-.7a9.19 9.19 0 0 1 .78-1c2.46-2.44 15.64-15.33 17.43-17 .3-.29.3-.49 0-.78-.85-.8-1.69-1.61-2.52-2.42-2.28-2.24-13.79-13.5-14.91-14.62a9.41 9.41 0 0 1-.78-1V439a2.06 2.06 0 0 1 1.2-1.1h.6a12.88 12.88 0 0 1 1.34 1c2.41 2.34 17.65 17.21 18.08 17.69a15.84 15.84 0 0 1 1 1.3z" transform="translate(-499.48 -437.87)"/></svg>